# xmcd
#
# Track frame offsets:
#	150
#	13782
#	25060
#	38560
#	52815
#	64707
#	77785
#	90522
#	100315
#	114320
#	126455
#	138677
#	150770
#	162987
#	174385
#	188335
#	214315
#	224262
#	236730
#	248642
#
# Disc length: 3455 seconds
#
# Revision: 0
# Processed by: cddbd v1.4PL0 Copyright (c) Steve Scherf et al.
# Submitted via: MusicWizard 6.0.1
#
DISCID=010d7d14
DTITLE=Various Artist - Blues Harp Bosses
DYEAR=1900
DGENRE=Blues
TTITLE0=Sonny Boy Williamson - Good Morning Schoolgirl
TTITLE1=Little Walter - I Just Keep Loving Her
TTITLE2=Walter Horton - Easy
TTITLE3=Joe Hill Louis - Keep Your Arms Around Me
TTITLE4=Hot Shot Love - Wolf Call Boogie
TTITLE5=Doctor Ross - Chicago Breakdown
TTITLE6=Willie Nix/James Cotton - Baker Shop Boogie
TTITLE7=Willie Johnson/Sammy Lewis - So Long Baby, Goodbye
TTITLE8=Floyed Jones/Snooky Pryor - Floyd's Blues
TTITLE9=Jimmy Reed - Blue Carnegie
TTITLE10=Billy Boy Arnold - I Wish You Would
TTITLE11=Sonny Terry - Harmonica Hop
TTITLE12=Buster Brown - Fannie Mae
TTITLE13=Sam Myers - You Don't Have To Go
TTITLE14=Polka Dot Slim - Ain't Broke, Ain't Hungry
TTITLE15=Sonny Boy Williamson - Take It Easy, Baby
TTITLE16=Birmingham Jones - Drinking Again
TTITLE17=Jerry McCain - 728 Texas (Wherever The Action Is)
TTITLE18=Frank Frost - My Back Scratcher
TTITLE19=George 'Wild Child' Butler - Best Of Wild Child
EXTD=
EXTT0=
EXTT1=
EXTT2=
EXTT3=
EXTT4=
EXTT5=
EXTT6=
EXTT7=
EXTT8=
EXTT9=
EXTT10=
EXTT11=
EXTT12=
EXTT13=
EXTT14=
EXTT15=
EXTT16=
EXTT17=
EXTT18=
EXTT19=
PLAYORDER=
